<?xml version="1.0" encoding="UTF-8"?>
<svg version="1.1" xmlns="http://www.w3.org/2000/svg" width="256" height="256">
<path d="M0 0 C4.84950009 2.94721 8.94538247 6.88075068 10.59765625 12.453125 C13.89248867 33.30973408 4.87322965 51.64838791 -6.32421875 68.71484375 C-8.61844446 71.84333336 -11.12269475 74.40340746 -14 77 C-12.02 76.67 -10.04 76.34 -8 76 C-10.18923267 84.85294965 -13.95019778 92.42529666 -19 100 C-18.34 100.33 -17.68 100.66 -17 101 C-20.28157862 106.17609824 -23.45924219 110.85989729 -28 115 C-27.01 114.67 -26.02 114.34 -25 114 C-28.43073797 133.58379592 -40.15130536 153.26119185 -56.125 165 C-60.52214378 167.88210225 -65.10533115 170.09651767 -70 172 C-60.97200623 171.56316159 -54.11041286 168.56467094 -47 163 C-49.66732239 171.53543166 -55.77590411 177.15948905 -63 182 C-59.45481116 180.60240095 -59.45481116 180.60240095 -56 179 C-57.44438255 184.29606935 -60.76432783 187.70384846 -65 191 C-70.76191298 194.21393136 -76.42216413 195.46167048 -82.96875 195.82421875 C-85.06735773 195.8801646 -85.06735773 195.8801646 -87 197 C-86.649375 197.5775 -86.29875 198.155 -85.9375 198.75 C-84.83422289 201.39786506 -85.19843491 202.33185326 -86 205 C-87.07402328 204.05643718 -88.10841793 203.06768541 -89.125 202.0625 C-89.70507812 201.51722656 -90.28515625 200.97195312 -90.8828125 200.41015625 C-93.81374682 194.08712661 -88.56121767 184.52783521 -86.31982422 178.35498047 C-85.81810257 176.98638957 -85.31563972 175.6180702 -84.8125 174.25 C-84.55422424 173.54313049 -84.29594849 172.83626099 -84.02984619 172.10797119 C-74.6141621 146.38217181 -64.1598165 121.0164217 -53 96 C-75.69738334 141.51778772 -93.39642058 190.57709807 -108.21875 239.18359375 C-108.53835693 240.22797607 -108.85796387 241.2723584 -109.18725586 242.34838867 C-109.7479479 244.20719616 -110.29439789 246.0703956 -110.82250977 247.9387207 C-112.55170658 253.73647652 -112.55170658 253.73647652 -115.09155273 255.22949219 C-116.03623413 255.61089355 -116.03623413 255.61089355 -117 256 C-115.7512859 249.97736988 -114.21821456 244.1259186 -112.35546875 238.265625 C-112.10380447 237.46574158 -111.8521402 236.66585815 -111.59284973 235.84173584 C-111.06272979 234.16049567 -110.53069738 232.47985742 -109.99682617 230.79980469 C-109.19448127 228.27199469 -108.40054683 225.74165332 -107.60742188 223.2109375 C-104.70529326 214.00726634 -101.61943348 204.95126542 -98 196 C-98.96832764 196.14381104 -99.93665527 196.28762207 -100.93432617 196.43579102 C-103.24397786 196.77880859 -105.55362956 197.12182617 -107.86328125 197.46484375 C-111.01641403 197.92093031 -111.01641403 197.92093031 -114 199 C-114 198.34 -114 197.68 -114 197 C-112.35546875 195.7109375 -112.35546875 195.7109375 -110.1875 194.375 C-109.47980469 193.92898437 -108.77210937 193.48296875 -108.04296875 193.0234375 C-106 192 -106 192 -103 192 C-103 191.34 -103 190.68 -103 190 C-103.78375 189.731875 -104.5675 189.46375 -105.375 189.1875 C-108 188 -108 188 -110 185 C-106.37 185.66 -102.74 186.32 -99 187 C-101.06624152 179.24551714 -103.41368899 172.60105576 -107.92578125 165.92578125 C-108.28027344 165.29027344 -108.63476562 164.65476563 -109 164 C-108.505 163.01 -108.505 163.01 -108 162 C-103.545 165.465 -103.545 165.465 -99 169 C-98.69707031 167.32035156 -98.39414063 165.64070312 -98.08203125 163.91015625 C-88.7760567 113.24805483 -64.68337078 67.44289093 -33 27 C-32.38382812 26.19175781 -31.76765625 25.38351563 -31.1328125 24.55078125 C-27.09030889 19.34249341 -22.76202737 14.4230028 -18.3125 9.5625 C-17.76561523 8.95873535 -17.21873047 8.3549707 -16.65527344 7.73291016 C-11.75626992 2.45373442 -7.62205118 -1.29187308 0 0 Z M-31 52 C-30 54 -30 54 -30 54 Z M-34 57 C-33 59 -33 59 -33 59 Z M-35 59 C-34 61 -34 61 -34 61 Z M-36 61 C-35 63 -35 63 -35 63 Z M-38 64 C-37 66 -37 66 -37 66 Z M-39 66 C-38 68 -38 68 -38 68 Z M-40 68 C-39 70 -39 70 -39 70 Z M-41 70 C-40 72 -40 72 -40 72 Z M-42 72 C-41 74 -41 74 -41 74 Z M-43 74 C-42 76 -42 76 -42 76 Z M-44 76 C-45.36663387 78.43123269 -46.7183867 80.86886163 -48.0625 83.3125 C-48.45244141 84.00279297 -48.84238281 84.69308594 -49.24414062 85.40429688 C-50.24037483 87.22925688 -51.12752842 89.11273877 -52 91 C-51.67 91.99 -51.34 92.98 -51 94 C-49.63610475 91.37964982 -48.28367827 88.75443001 -46.9375 86.125 C-46.54755859 85.37863281 -46.15761719 84.63226563 -45.75585938 83.86328125 C-45.39169922 83.14785156 -45.02753906 82.43242188 -44.65234375 81.6953125 C-44.31195068 81.03547363 -43.97155762 80.37563477 -43.62084961 79.69580078 C-43.41596924 79.13618652 -43.21108887 78.57657227 -43 78 C-43.33 77.34 -43.66 76.68 -44 76 Z " fill="#E16234" transform="translate(181,0)"/>
<path d="M0 0 C-2.18923267 8.85294965 -5.95019778 16.42529666 -11 24 C-10.34 24.33 -9.68 24.66 -9 25 C-12.28157862 30.17609824 -15.45924219 34.85989729 -20 39 C-19.01 38.67 -18.02 38.34 -17 38 C-20.43073797 57.58379592 -32.15130536 77.26119185 -48.125 89 C-52.52214378 91.88210225 -57.10533115 94.09651767 -62 96 C-52.97200623 95.56316159 -46.11041286 92.56467094 -39 87 C-41.66732239 95.53543166 -47.77590411 101.15948905 -55 106 C-51.45481116 104.60240095 -51.45481116 104.60240095 -48 103 C-49.44438255 108.29606935 -52.76432783 111.70384846 -57 115 C-62.76191298 118.21393136 -68.42216413 119.46167048 -74.96875 119.82421875 C-77.06735773 119.8801646 -77.06735773 119.8801646 -79 121 C-78.4740625 121.86625 -78.4740625 121.86625 -77.9375 122.75 C-76.83422289 125.39786506 -77.19843491 126.33185326 -78 129 C-79.07402328 128.05643718 -80.10841793 127.06768541 -81.125 126.0625 C-81.70507812 125.51722656 -82.28515625 124.97195312 -82.8828125 124.41015625 C-85.81350705 118.08764389 -80.56187085 108.52998422 -78.32104492 102.35742188 C-77.81903636 100.98797312 -77.31616176 99.61884159 -76.8125 98.25 C-76.55256256 97.53980713 -76.29262512 96.82961426 -76.02481079 96.09790039 C-67.41042154 72.60783492 -58.02977059 49.40518894 -47.79727173 26.57250977 C-47.14649099 25.12029807 -46.4987881 23.66670274 -45.8543396 22.21166992 C-44.96287413 20.20583613 -44.05646025 18.20753581 -43.14453125 16.2109375 C-42.63253174 15.07962402 -42.12053223 13.94831055 -41.59301758 12.78271484 C-39.26326141 8.71305035 -37.09978886 7.3924995 -32.73828125 5.8359375 C-28.80825651 4.95712319 -25.20946432 4.72762127 -21.1875 4.625 C-15.22630268 4.38842813 -10.31386396 3.44956243 -4.91796875 0.83984375 C-3 0 -3 0 0 0 Z " fill="#C12948" transform="translate(173,76)"/>
<path d="M0 0 C0.66 0.33 1.32 0.66 2 1 C2 1.66 2 2.32 2 3 C2.66 3.33 3.32 3.66 4 4 C5.03515625 5.53125 5.03515625 5.53125 6.0625 7.5 C6.40410156 8.1290625 6.74570313 8.758125 7.09765625 9.40625 C9.43844538 16.1347521 9.5341718 20.54198316 6.5625 27.17578125 C5.70136781 28.93377055 4.8391405 30.69138357 3.95147705 32.43612671 C2.27773839 35.73684585 0.68713915 39.07771828 -0.9140625 42.4140625 C-1.25241119 43.11510605 -1.59075989 43.8161496 -1.93936157 44.53843689 C-21.95358372 86.22579185 -37.74158243 130.9882538 -51.21875 175.18359375 C-51.53835693 176.22797607 -51.85796387 177.2723584 -52.18725586 178.34838867 C-52.7479479 180.20719616 -53.29439789 182.0703956 -53.82250977 183.9387207 C-55.55170658 189.73647652 -55.55170658 189.73647652 -58.09155273 191.22949219 C-59.03623413 191.61089355 -59.03623413 191.61089355 -60 192 C-58.7512859 185.97736988 -57.21821456 180.1259186 -55.35546875 174.265625 C-55.10380447 173.46574158 -54.8521402 172.66585815 -54.59284973 171.84173584 C-54.06272979 170.16049567 -53.53069738 168.47985742 -52.99682617 166.79980469 C-52.19448127 164.27199469 -51.40054683 161.74165332 -50.60742188 159.2109375 C-47.70529326 150.00726634 -44.61943348 140.95126542 -41 132 C-41.96832764 132.14381104 -42.93665527 132.28762207 -43.93432617 132.43579102 C-46.24397786 132.77880859 -48.55362956 133.12182617 -50.86328125 133.46484375 C-54.01641403 133.92093031 -54.01641403 133.92093031 -57 135 C-57 134.34 -57 133.68 -57 133 C-55.35546875 131.7109375 -55.35546875 131.7109375 -53.1875 130.375 C-52.47980469 129.92898437 -51.77210937 129.48296875 -51.04296875 129.0234375 C-49 128 -49 128 -46 128 C-46 127.34 -46 126.68 -46 126 C-46.78375 125.731875 -47.5675 125.46375 -48.375 125.1875 C-51 124 -51 124 -53 121 C-49.37 121.66 -45.74 122.32 -42 123 C-44.06624152 115.24551714 -46.41368899 108.60105576 -50.92578125 101.92578125 C-51.28027344 101.29027344 -51.63476562 100.65476562 -52 100 C-51.505 99.01 -51.505 99.01 -51 98 C-46.545 101.465 -46.545 101.465 -42 105 C-41.69707031 103.32035156 -41.39414063 101.64070313 -41.08203125 99.91015625 C-35.02097106 66.91349969 -23.39818382 37.35163476 -6.5 8.3125 C-6.07847656 7.58683838 -5.65695313 6.86117676 -5.22265625 6.11352539 C-2.25190661 1.12595331 -2.25190661 1.12595331 0 0 Z " fill="#C12A4A" transform="translate(124,64)"/>
<path d="M0 0 C4.84915847 2.96138645 8.88148614 6.85398106 10.61328125 12.40234375 C11.52768698 18.54456407 11.20278872 24.81118884 11 31 C-7.50124896 34.23619206 -7.50124896 34.23619206 -16.03125 34.7890625 C-18.07539349 34.89212072 -18.07539349 34.89212072 -20 36 C-21.98 31.71 -23.96 27.42 -26 23 C-27.65 23.99 -29.3 24.98 -31 26 C-29.64891034 23.03674056 -28.11293352 20.79214835 -25.9375 18.375 C-25.31875 17.68664062 -24.7 16.99828125 -24.0625 16.2890625 C-23.381875 15.53367187 -22.70125 14.77828125 -22 14 C-21.2575 13.14148437 -20.515 12.28296875 -19.75 11.3984375 C-8.40545096 -1.59413725 -8.40545096 -1.59413725 0 0 Z " fill="#F59A2E" transform="translate(181,0)"/>
<path d="M0 0 C3.10538222 3.10538222 5.2125639 6.29142241 7.375 10.0625 C7.76816406 10.68060547 8.16132812 11.29871094 8.56640625 11.93554688 C10.18901596 14.80293841 11.19659753 16.90923737 10.59796143 20.23059082 C10.33521423 21.01752319 10.07246704 21.80445557 9.80175781 22.61523438 C9.51412567 23.49534683 9.22649353 24.37545929 8.93014526 25.28224182 C8.62319733 26.17910202 8.31624939 27.07596222 8 28 C7.72519806 28.83051376 7.45039612 29.66102753 7.16726685 30.51670837 C6.30085745 33.11928221 5.41439162 35.71432514 4.5234375 38.30859375 C4.1966098 39.26587372 3.8697821 40.22315369 3.53305054 41.20944214 C2.12172536 45.34206818 0.70556424 49.47303207 -0.71032715 53.60409546 C-5.91973157 68.77796902 -5.91973157 68.77796902 -10.9140625 84.0234375 C-11.1216922 84.66904129 -11.3293219 85.31464508 -11.54324341 85.97981262 C-12.46661388 88.85121103 -13.37648811 91.72525228 -14.26025391 94.60913086 C-14.57140137 95.57987549 -14.88254883 96.55062012 -15.203125 97.55078125 C-15.45739258 98.37231689 -15.71166016 99.19385254 -15.97363281 100.0402832 C-17.25887171 102.49428241 -18.53168142 102.88111633 -21 104 C-19.7512859 97.97736988 -18.21821456 92.1259186 -16.35546875 86.265625 C-16.10380447 85.46574158 -15.8521402 84.66585815 -15.59284973 83.84173584 C-15.06272979 82.16049567 -14.53069738 80.47985742 -13.99682617 78.79980469 C-13.19448127 76.27199469 -12.40054683 73.74165332 -11.60742188 71.2109375 C-8.70529326 62.00726634 -5.61943348 52.95126542 -2 44 C-2.96832764 44.14381104 -3.93665527 44.28762207 -4.93432617 44.43579102 C-7.24397786 44.77880859 -9.55362956 45.12182617 -11.86328125 45.46484375 C-15.01641403 45.92093031 -15.01641403 45.92093031 -18 47 C-18 46.34 -18 45.68 -18 45 C-16.35546875 43.7109375 -16.35546875 43.7109375 -14.1875 42.375 C-13.47980469 41.92898437 -12.77210937 41.48296875 -12.04296875 41.0234375 C-10 40 -10 40 -7 40 C-7 39.34 -7 38.68 -7 38 C-7.78375 37.731875 -8.5675 37.46375 -9.375 37.1875 C-12 36 -12 36 -14 33 C-10.37 33.66 -6.74 34.32 -3 35 C-5.06624152 27.24551714 -7.41368899 20.60105576 -11.92578125 13.92578125 C-12.28027344 13.29027344 -12.63476562 12.65476563 -13 12 C-12.67 11.34 -12.34 10.68 -12 10 C-9.03 12.31 -6.06 14.62 -3 17 C-2.01 11.39 -1.02 5.78 0 0 Z " fill="#913E86" transform="translate(85,152)"/>
<path d="M0 0 C0 4.92800511 -2.95131992 8.27383545 -6 12 C-8.85856072 14.55178835 -11.84916592 16.82242356 -15 19 C-11.45481116 17.60240095 -11.45481116 17.60240095 -8 16 C-9.44438255 21.29606935 -12.76432783 24.70384846 -17 28 C-22.76191298 31.21393136 -28.42216413 32.46167048 -34.96875 32.82421875 C-37.06735773 32.8801646 -37.06735773 32.8801646 -39 34 C-38.4740625 34.86625 -38.4740625 34.86625 -37.9375 35.75 C-36.83422289 38.39786506 -37.19843491 39.33185326 -38 42 C-40.41167241 39.88127085 -42.36977546 37.77761188 -44 35 C-43.76787062 31.40199455 -43.21666024 29.33004414 -42 26 C-41.50081448 24.54879147 -41.00359441 23.0969061 -40.5078125 21.64453125 C-39.04886664 17.41323543 -37.53497 13.20427317 -36 9 C-34.81664063 9.03480469 -33.63328125 9.06960937 -32.4140625 9.10546875 C-19.50147711 9.37601816 -10.13341661 8.74644059 0 0 Z " fill="#8D3983" transform="translate(133,163)"/>
<path d="M0 0 C1.32 0 2.64 0 4 0 C1.51338994 9.87827659 -1.75025185 19.4793877 -5 29.125 C-5.80384891 31.52155315 -6.6068633 33.91838376 -7.40942383 36.31536865 C-7.92245912 37.84340732 -8.43786835 39.37065128 -8.95581055 40.89703369 C-9.98635555 43.93762031 -10.99133252 46.97070505 -11.90234375 50.04980469 C-13.59240652 55.76176009 -13.59240652 55.76176009 -16.0859375 57.21923828 C-17.03339844 57.60571533 -17.03339844 57.60571533 -18 58 C-16.74824129 51.94996271 -15.19946334 46.07902198 -13.3203125 40.1953125 C-13.06627655 39.39068573 -12.8122406 38.58605896 -12.55050659 37.75704956 C-12.01613825 36.06743185 -11.47991106 34.37840098 -10.94189453 32.68994141 C-10.12971864 30.1398159 -9.32416541 27.58767012 -8.51953125 25.03515625 C-5.8574054 16.62180495 -3.13904623 8.25074254 0 0 Z " fill="#986BAC" transform="translate(82,198)"/>
<path d="M0 0 C0.66 0 1.32 0 2 0 C2.35095842 5.95831677 1.15671956 10.688594 -0.75 16.3125 C-1.00265625 17.12267578 -1.2553125 17.93285156 -1.515625 18.76757812 C-1.7734375 19.54166016 -2.03125 20.31574219 -2.296875 21.11328125 C-2.52729492 21.81235596 -2.75771484 22.51143066 -2.99511719 23.23168945 C-4.28060433 25.49378454 -5.6250697 26.05045657 -8 27 C-6.68764148 20.63569826 -4.98780585 14.57878972 -2.875 8.4375 C-2.59785156 7.61958984 -2.32070312 6.80167969 -2.03515625 5.95898438 C-1.36094863 3.97123432 -0.68107796 1.98540651 0 0 Z " fill="#64608D" transform="translate(72,229)"/>
<path d="M0 0 C1.32 0 2.64 0 4 0 C3.01 3.63 2.02 7.26 1 11 C0.34 10.34 -0.32 9.68 -1 9 C-1.99 9.495 -1.99 9.495 -3 10 C-2.01 6.7 -1.02 3.4 0 0 Z " fill="#9E67A4" transform="translate(82,198)"/>
<path d="M0 0 C2.31 0 4.62 0 7 0 C6.34 0.66 5.68 1.32 5 2 C5.5259375 2.86625 5.5259375 2.86625 6.0625 3.75 C7.16577711 6.39786506 6.80156509 7.33185326 6 10 C4.99106869 8.90398831 3.99311775 7.79786082 3 6.6875 C2.1646875 5.76517578 2.1646875 5.76517578 1.3125 4.82421875 C0 3 0 3 0 0 Z " fill="#A874AC" transform="translate(89,195)"/>
<path d="M0 0 C1.8125 0.875 1.8125 0.875 4.8125 2.875 C0.5225 3.865 -3.7675 4.855 -8.1875 5.875 C-8.1875 5.215 -8.1875 4.555 -8.1875 3.875 C-3.0938214 -0.17678979 -3.0938214 -0.17678979 0 0 Z " fill="#B184B5" transform="translate(75.1875,193.125)"/>
<path d="M0 0 C0.33 0 0.66 0 1 0 C1 1.98 1 3.96 1 6 C-0.32 6.33 -1.64 6.66 -3 7 C-2.25 2.25 -2.25 2.25 0 0 Z " fill="#884E99" transform="translate(81,206)"/>
<path d="M0 0 C0.66 0 1.32 0 2 0 C2 2.31 2 4.62 2 7 C1.01 7 0.02 7 -1 7 C-0.67 4.69 -0.34 2.38 0 0 Z " fill="#604C8A" transform="translate(72,229)"/>
<path d="M0 0 C0.33 0 0.66 0 1 0 C0.67 2.64 0.34 5.28 0 8 C-0.33 7.01 -0.66 6.02 -1 5 C-1.66 5 -2.32 5 -3 5 C-1.125 1.125 -1.125 1.125 0 0 Z " fill="#80579F" transform="translate(75,224)"/>
<path d="" fill="#F0E6F0" transform="translate(0,0)"/>
</svg>
