<?xml version="1.0" encoding="UTF-8"?>
<svg version="1.1" xmlns="http://www.w3.org/2000/svg" width="979" height="922">
<path d="M0 0 C32.12798932 10.18833535 61.83950392 27.19753484 86.6875 49.91015625 C88.64985514 51.68356841 90.64661409 53.38150245 92.6875 55.0625 C95.83152174 57.73748353 98.48325305 60.69718862 101.1484375 63.84375 C102.37138069 65.267937 103.62667315 66.66504089 104.9140625 68.03125 C121.78532811 85.97671604 135.63557301 107.21320842 147 129 C147.45020508 129.86093262 147.90041016 130.72186523 148.36425781 131.60888672 C178.6751212 190.32954674 182.39755046 257.42056496 162.93188477 320.21582031 C156.5782969 339.94971171 148.56977304 359.13672391 140 378 C139.57106445 378.94439941 139.14212891 379.88879883 138.70019531 380.86181641 C118.09670552 425.84890254 89.1868856 469.88294344 51 502 C50.45730469 502.45648926 49.91460938 502.91297852 49.35546875 503.38330078 C32.94553527 517.11827454 15.8955441 528.91680565 -3 539 C-3.82419434 539.44085937 -4.64838867 539.88171875 -5.49755859 540.3359375 C-27.34792048 551.82467587 -51.72324023 559.65715742 -76 564 C-76.86496094 564.16081055 -77.72992187 564.32162109 -78.62109375 564.48730469 C-106.46460288 569.44475767 -137.20094931 568.89840587 -165 564 C-165.98242676 563.82839355 -166.96485352 563.65678711 -167.97705078 563.47998047 C-212.59708575 555.42548472 -253.77303636 537.70022339 -289 509 C-289.54543457 508.5575293 -290.09086914 508.11505859 -290.65283203 507.65917969 C-304.40218889 496.4172682 -317.06320526 484.00539182 -328 470 C-328.86629867 468.96581399 -329.73630647 467.93472725 -330.609375 466.90625 C-345.46685458 449.20731585 -357.39052202 428.92026795 -369 409 C-369.56895996 408.02659668 -370.13791992 407.05319336 -370.72412109 406.05029297 C-381.0424978 388.36916585 -391.00233055 370.49616306 -400.89111328 352.57226562 C-408.00999349 339.67422745 -415.20088809 326.83270527 -422.66040039 314.12817383 C-427.1656918 306.45181396 -431.59528357 298.73427521 -436 291 C-440.98947979 282.2398104 -446.02446013 273.50869073 -451.125 264.8125 C-456.44949178 255.72954343 -461.62223475 246.56993979 -466.74169922 237.37011719 C-470.82542164 230.04939539 -475.00810553 222.79259526 -479.25 215.5625 C-483.46754102 208.37211118 -487.64003464 201.1627115 -491.6875 193.875 C-492.08549805 193.15900635 -492.48349609 192.4430127 -492.89355469 191.70532227 C-499 180.6430566 -499 180.6430566 -499 178 C-462.25568183 177.03278336 -425.52258342 176.78254017 -388.7677871 176.76117182 C-380.69527296 176.75639511 -372.62292174 176.73856406 -364.55045682 176.7101047 C-358.20207824 176.6885175 -351.85374611 176.67840422 -345.50533122 176.67706418 C-341.75325709 176.67602305 -338.00134198 176.67025176 -334.24930763 176.65224457 C-330.11507437 176.63274741 -325.98119789 176.63704023 -321.84692383 176.64355469 C-320.62702255 176.6343399 -319.40712128 176.62512512 -318.1502533 176.6156311 C-307.71778276 176.66732929 -307.71778276 176.66732929 -303 180 C-301.05639648 182.56176758 -301.05639648 182.56176758 -299.37109375 185.64453125 C-298.7354248 186.7850293 -298.09975586 187.92552734 -297.44482422 189.10058594 C-296.77567106 190.33786624 -296.10656409 191.57517153 -295.4375 192.8125 C-294.7312461 194.08862774 -294.02305158 195.36368327 -293.31298828 196.63769531 C-292.2346113 198.57302964 -291.15739656 200.50890234 -290.08618164 202.44821167 C-286.95617913 208.11335375 -283.69201371 213.69233067 -280.375 219.25 C-279.31851722 221.02835293 -278.26252892 222.80699971 -277.20703125 224.5859375 C-276.68318848 225.46862305 -276.1593457 226.35130859 -275.61962891 227.26074219 C-270.95966218 235.14208477 -266.36877406 243.06422469 -261.76171875 250.9765625 C-260.02047583 253.96485966 -258.27638208 256.95147264 -256.53125 259.9375 C-245.51888837 278.78346122 -234.59882316 297.68179333 -223.77752686 316.63809204 C-222.75805961 318.42338599 -221.73781777 320.2082348 -220.71728516 321.99291992 C-217.74528867 327.19080346 -214.77726003 332.39067066 -211.828125 337.6015625 C-197.20238574 363.33832848 -179.20899292 384.76879197 -150.02734375 393.93359375 C-124.5490257 400.66553872 -97.58444793 396.33199578 -74.875 383.3828125 C-69.42970503 380.12252159 -64.64543399 376.3171852 -60 372 C-59.08863281 371.16855469 -58.17726563 370.33710937 -57.23828125 369.48046875 C-26.8910603 340.5723071 0.63398318 287.29177327 4.203125 245.62890625 C4.72792491 222.49397702 -4.74870299 200.08710128 -20 183 C-20.73734375 182.16855469 -21.4746875 181.33710937 -22.234375 180.48046875 C-38.76144537 162.90020272 -62.1742872 153.51274367 -86 152 C-85.05408722 147.65439694 -82.98583739 144.08932353 -80.8125 140.25 C-80.37252686 139.46560547 -79.93255371 138.68121094 -79.47924805 137.87304688 C-74.65016092 129.30501637 -69.67331345 120.82256759 -64.703125 112.3359375 C-60.96365411 105.94718008 -57.25874966 99.53883924 -53.5625 93.125 C-52.94028564 92.04541016 -52.31807129 90.96582031 -51.67700195 89.85351562 C-50.41488483 87.6631748 -49.15292215 85.47274498 -47.89111328 83.28222656 C-44.76319852 77.85340058 -41.63141552 72.42680719 -38.5 67 C-37.24998121 64.83334417 -35.99998122 62.6666775 -34.75 60.5 C-27.25 47.5 -27.25 47.5 -25.37158203 44.24414062 C-24.13289998 42.09704864 -22.8942921 39.94991386 -21.65576172 37.80273438 C-18.7146665 32.70411191 -15.77278587 27.60594704 -12.82830811 22.50927734 C-11.43041399 20.08952335 -10.03293911 17.66952737 -8.63549805 15.24951172 C-7.64347676 13.53198948 -6.65084571 11.81481948 -5.65820312 10.09765625 C-5.06201172 9.06511719 -4.46582031 8.03257812 -3.8515625 6.96875 C-3.32385254 6.05544922 -2.79614258 5.14214844 -2.25244141 4.20117188 C-1.46663489 2.82011309 -0.71060752 1.42121505 0 0 Z " fill="#5DC2B6" transform="translate(804,353)"/>
<path d="M0 0 C1.54393765 1.4586739 3.07788285 2.9271924 4.609375 4.39892578 C5.50124512 5.24994873 5.50124512 5.24994873 6.41113281 6.11816406 C15.30868179 14.65090894 23.30681594 23.46968809 30.609375 33.39892578 C31.03557129 33.9696582 31.46176758 34.54039063 31.90087891 35.12841797 C38.41494059 43.86805577 44.24422458 52.91268483 49.609375 62.39892578 C50.20468018 63.4437915 50.20468018 63.4437915 50.81201172 64.50976562 C72.99872676 103.84036043 84.82355676 148.93119577 84.859375 194.02392578 C84.86038712 195.17726913 84.86038712 195.17726913 84.86141968 196.35391235 C84.81991896 226.33178035 79.42267823 255.10275773 69.609375 283.39892578 C69.37669922 284.08792969 69.14402344 284.77693359 68.90429688 285.48681641 C61.86665591 306.22159741 51.71434949 325.88894358 40.99707031 344.92480469 C39.71331667 347.21360825 38.44972994 349.51191551 37.1953125 351.81689453 C30.40372397 364.26173704 23.1346317 376.42296339 15.87451172 388.59814453 C11.81851247 395.40121283 7.777672 402.21330371 3.734375 409.02392578 C3.32482574 409.71369507 2.91527649 410.40346436 2.49331665 411.11413574 C-6.62380962 426.46962956 -15.67023028 441.85873189 -24.58300781 457.33398438 C-29.40045408 465.69509099 -34.25432719 474.03427557 -39.12451172 482.36474609 C-43.36824066 489.62985784 -47.57157655 496.91754748 -51.765625 504.21142578 C-57.59961823 514.3544286 -63.54543718 524.42677136 -69.53710938 534.47729492 C-73.89355901 541.80720277 -78.11356526 549.20169838 -82.265625 556.64892578 C-86.00188804 563.33127614 -89.84002931 569.89577076 -94.078125 576.27392578 C-94.48853027 576.89299805 -94.89893555 577.51207031 -95.32177734 578.14990234 C-98.12436949 582.26579802 -98.12436949 582.26579802 -100.390625 583.39892578 C-100.89323853 582.53618042 -100.89323853 582.53618042 -101.40600586 581.65600586 C-108.19421132 570.00617843 -114.99321956 558.36283946 -121.81503296 546.73266602 C-132.86645352 527.89147554 -143.88638664 509.0332313 -154.7878418 490.10473633 C-158.94211654 482.8958636 -163.12642588 475.70523971 -167.328125 468.52392578 C-172.58621016 459.53128093 -177.78549202 450.50623839 -182.953125 441.46142578 C-183.29101044 440.8703302 -183.62889587 440.27923462 -183.97702026 439.67022705 C-185.55975702 436.90032875 -187.13746868 434.12795824 -188.70361328 431.34863281 C-189.75909286 429.50314739 -190.84199746 427.67278051 -191.96435547 425.8671875 C-194.91487241 421.02146311 -196.73744402 417.09826968 -195.390625 411.39892578 C-194.03178395 408.11555875 -192.25552915 405.16777615 -190.390625 402.14892578 C-189.28034147 400.28097592 -188.17101637 398.41245614 -187.0625 396.54345703 C-186.46630859 395.55039551 -185.87011719 394.55733398 -185.25585938 393.53417969 C-182.31742161 388.59498889 -179.48361433 383.59695017 -176.64404297 378.60046387 C-174.94450029 375.61261822 -173.23745338 372.62906484 -171.53125 369.64501953 C-170.83915765 368.4339393 -170.14710036 367.22283904 -169.45507812 366.01171875 C-165.37304688 358.86816408 -165.37304688 358.86816408 -164.37251282 357.11723328 C-163.70762196 355.95367173 -163.04273548 354.79010769 -162.37785339 353.62654114 C-160.71660485 350.71931166 -159.05527973 347.81212599 -157.39379883 344.9050293 C-154.04600005 339.04718643 -150.69951263 333.18860058 -147.35546875 327.32861328 C-124.37277476 287.05864002 -124.37277476 287.05864002 -112.99822998 267.90884399 C-111.96486367 266.16869327 -110.93266809 264.42785382 -109.90087891 262.68676758 C-107.21628566 258.1574743 -104.53067808 253.62925071 -101.81640625 249.11767578 C-88.57564389 226.88642075 -80.91987461 200.20335259 -87.015625 174.46142578 C-93.42902201 149.73309638 -108.641298 128.73930425 -130.390625 115.39892578 C-153.97233085 101.69423407 -179.20861741 99.8328884 -205.953125 100.02392578 C-207.09782257 100.02824615 -208.24252014 100.03256653 -209.42190552 100.03701782 C-246.33361533 100.20045666 -284.97946619 102.05574801 -313.203125 128.71142578 C-330.67755032 147.22329379 -340.10904137 172.52133102 -339.64453125 197.91455078 C-338.66382182 211.37290179 -335.56530557 224.35829866 -329.390625 236.39892578 C-329.390625 237.38892578 -329.390625 238.37892578 -329.390625 239.39892578 C-386.810625 239.39892578 -444.230625 239.39892578 -503.390625 239.39892578 C-519.30990341 175.72181213 -501.10924829 110.01841197 -469.390625 54.39892578 C-454.16358179 29.18890796 -434.67364386 5.52245379 -411.390625 -12.60107422 C-410.41996094 -13.38869141 -409.44929688 -14.17630859 -408.44921875 -14.98779297 C-399.59679315 -22.04535881 -390.18746221 -27.94341666 -380.390625 -33.60107422 C-379.3704126 -34.1946875 -379.3704126 -34.1946875 -378.32958984 -34.80029297 C-339.65746413 -57.04506908 -296.04012632 -64.36897381 -252.390625 -69.60107422 C-251.28348145 -69.73674805 -250.17633789 -69.87242188 -249.03564453 -70.01220703 C-161.74011677 -80.25849976 -65.80736244 -61.18581044 0 0 Z " fill="#00A5E8" transform="translate(707.390625,72.60107421875)"/>
<path d="M0 0 C11.74433026 -0.0461928 23.48862511 -0.08596009 35.23302835 -0.10799903 C40.2732273 -0.11751824 45.31336705 -0.13013459 50.35353279 -0.15104103 C55.02506736 -0.17020719 59.69652314 -0.17990655 64.36809564 -0.18205953 C66.08090812 -0.18446913 67.79371961 -0.19031006 69.50650764 -0.19977641 C71.83882569 -0.21210952 74.17082528 -0.21215965 76.5031662 -0.20900726 C78.46077645 -0.21368971 78.46077645 -0.21368971 80.45793438 -0.21846676 C83.5949173 0.02498627 83.5949173 0.02498627 86.5949173 2.02498627 C86.28489777 2.56985687 85.97487823 3.11472748 85.65546417 3.67610931 C78.91097233 15.54155539 72.2375292 27.44282258 65.6574173 39.39998627 C60.08427993 49.52676636 54.47430962 59.6314131 48.81391144 69.70980072 C45.81938114 75.04411281 42.83810823 80.38517885 39.88007355 85.73983002 C33.28213185 97.67973407 26.58468813 109.54214509 19.66449738 121.29842377 C15.73853496 127.99325806 11.96972848 134.75860721 8.2824173 141.58748627 C4.80502866 148.01335702 1.30366414 154.41656744 -2.4050827 160.71248627 C-2.75482147 161.31842621 -3.10456024 161.92436615 -3.46489716 162.54866791 C-5.42374656 165.82200209 -7.11707083 168.08111477 -10.4050827 170.02498627 C-13.39189911 170.44149017 -13.39189911 170.44149017 -17.0066452 170.50154877 C-18.02212936 170.52437424 -18.02212936 170.52437424 -19.05812836 170.54766083 C-21.38207597 170.59599501 -23.70579676 170.62284911 -26.0300827 170.64998627 C-27.75992135 170.68073083 -29.48973894 170.71267861 -31.21953583 170.74568939 C-35.12406543 170.8169352 -39.02860155 170.8779078 -42.93340302 170.93221283 C-48.52477367 171.01024787 -54.11573961 171.10472656 -59.70677948 171.20343781 C-85.46670309 171.65598403 -111.22652458 172.00186219 -136.98957825 172.21297073 C-140.22194023 172.23980134 -143.45428974 172.26781071 -146.68663788 172.29625702 C-147.7542548 172.30563356 -148.82187172 172.31501011 -149.92184067 172.32467079 C-152.07832252 172.34362834 -154.23480395 172.36263442 -156.39128494 172.38168907 C-162.75578465 172.43703755 -169.1202751 172.48354609 -175.48488808 172.52365017 C-179.49978412 172.55083121 -183.51458868 172.58575055 -187.5294075 172.62249184 C-189.39591165 172.63792794 -191.26244589 172.65014463 -193.12899399 172.65875816 C-223.2857763 172.80244946 -251.57205137 177.82879539 -273.9597702 199.49764252 C-285.87982561 212.16019296 -294.13289765 228.23680178 -298.4050827 245.02498627 C-298.74346161 246.28955658 -298.74346161 246.28955658 -299.08867645 247.57967377 C-307.6417617 285.44919603 -287.51268617 320.32028326 -268.2175827 351.14998627 C-260.42298884 363.38758883 -251.80138721 374.96951447 -242.4050827 386.02498627 C-241.69996552 386.87705658 -240.99484833 387.72912689 -240.26836395 388.60701752 C-225.62396923 405.72281817 -204.73222868 415.77840388 -182.4050827 418.02498627 C-156.85975773 419.65553892 -131.98410321 411.63266491 -112.4050827 395.02498627 C-105.65231995 388.98869701 -100.25113417 382.92211781 -95.74492645 375.04451752 C-95.0817038 374.04484955 -95.0817038 374.04484955 -94.4050827 373.02498627 C-93.7450827 373.02498627 -93.0850827 373.02498627 -92.4050827 373.02498627 C-91.97763763 373.78283417 -91.97763763 373.78283417 -91.54155731 374.55599213 C-84.96537387 386.19277964 -78.22745508 397.71805704 -71.3245163 409.16390228 C-66.47913533 417.20835952 -61.70716426 425.29298136 -56.9675827 433.39998627 C-49.44687306 446.2614246 -41.8637811 459.08449251 -34.26006317 471.89705658 C-30.88305863 477.59147383 -27.51471674 483.29101221 -24.15093231 488.99324799 C-21.37184127 493.70329137 -18.58279458 498.40707807 -15.7800827 503.10311127 C-15.184133 504.10431 -14.58818329 505.10550873 -13.9741745 506.13704681 C-12.832705 508.05430309 -11.68848798 509.9699272 -10.54106903 511.88362885 C-9.77186127 513.17756561 -9.77186127 513.17756561 -8.98711395 514.49764252 C-8.53570038 515.25311371 -8.0842868 516.0085849 -7.61919403 516.78694916 C-6.3420497 519.14117842 -5.35197131 521.52172703 -4.4050827 524.02498627 C-21.97452864 541.02933306 -44.22155872 554.91352377 -66.4050827 565.02498627 C-67.13130829 565.35982025 -67.85753387 565.69465424 -68.6057663 566.0396347 C-88.72217121 575.21674811 -109.67605646 580.26360036 -131.4050827 584.02498627 C-132.79316132 584.27490326 -132.79316132 584.27490326 -134.20928192 584.52986908 C-163.21640529 589.55423364 -196.54134956 589.84279637 -225.4050827 584.02498627 C-226.26682098 583.86401459 -227.12855927 583.70304291 -228.01641083 583.5371933 C-284.35589555 572.87366537 -337.80830053 541.00899824 -373.3269577 495.66170502 C-375.21403071 493.26739246 -377.17417043 490.95708132 -379.17290497 488.65584564 C-387.09245254 479.50398855 -394.25793276 469.78444946 -401.4050827 460.02498627 C-402.21211639 458.92597992 -402.21211639 458.92597992 -403.0354538 457.80477142 C-422.20402546 431.57505555 -438.26762895 403.16670366 -450.4050827 373.02498627 C-450.89331512 371.82664154 -450.89331512 371.82664154 -451.39141083 370.60408783 C-477.08806865 306.84526149 -479.62123203 231.95720363 -453.4050827 168.02498627 C-436.45962276 128.86249451 -410.8128535 91.19741513 -377.24492645 64.30623627 C-375.40604427 62.82905993 -373.58429448 61.33019087 -371.78398895 59.80623627 C-330.49955899 24.9629135 -276.76536684 7.49222068 -223.5925827 2.89998627 C-222.71811493 2.82433441 -221.84364716 2.74868256 -220.94268036 2.67073822 C-198.08937365 0.87166542 -175.19322919 0.82558278 -152.28576827 0.72166324 C-147.52867435 0.69923684 -142.77160687 0.67206739 -138.014534 0.64560699 C-129.96138066 0.60150355 -121.90821589 0.56079083 -113.85503387 0.52230072 C-105.80000176 0.48377983 -97.74499327 0.44231926 -89.68999481 0.39730072 C-64.99080539 0.25947983 -40.29163084 0.1425932 -15.59220088 0.05726635 C-10.39479565 0.03930139 -5.19739586 0.02050889 0 0 Z " fill="#FCCD0B" transform="translate(472.4050827026367,334.97501373291016)"/>
</svg>
