<svg height="322" preserveAspectRatio="xMidYMid" viewBox="0 0 256 322" width="256" xmlns="http://www.w3.org/2000/svg" xmlns:xlink="http://www.w3.org/1999/xlink"><linearGradient id="a" x1="49.927914%" x2="49.927914%" y1="90.720725%" y2="36.288319%"><stop offset=".18" stop-color="#0052cc"/><stop offset="1" stop-color="#2684ff"/></linearGradient><path d="m255.461938 127.520788c0-70.4277864-57.093002-127.520788-127.520789-127.520788-62.7701027-.08852097-116.2627838 45.5310512-126.08528747 107.527923-9.82250365 61.996872 26.94887037 121.917472 86.67221727 141.236259v63.894909c0 4.952728 4.014979 8.967707 8.9677066 8.967707h60.5320196c4.952728 0 8.967707-4.014979 8.967707-8.967707v-63.850071c52.674885-16.961308 88.406708-65.949945 88.466426-121.288232zm-127.520789 43.089831c-23.810238 0-43.1122492-19.302012-43.1122492-43.11225s19.3020112-43.1122497 43.1122492-43.1122497 43.11225 19.3020117 43.11225 43.1122497-19.302012 43.11225-43.11225 43.11225z" fill="#2684ff"/><path d="m127.941149-.0001186v84.4310765c23.810238 0 43.11225 19.3020111 43.11225 43.1122491s-19.302012 43.11225-43.11225 43.11225c10.452997 0 20.477865 4.152437 27.86925 11.543821 7.391384 7.391385 11.543821 17.416253 11.543821 27.86925v38.785331c59.745398-19.322276 96.533014-79.261887 86.710513-141.281089-9.8225-62.0192026-63.33142-107.65779413-126.123584-107.5728886z" fill="url(#a)"/></svg>